<svg width="893" height="232" viewBox="0 0 893 232" fill="none" xmlns="http://www.w3.org/2000/svg">
<path d="M602.4 112.127C616.127 110.521 626.218 97.9181 621.558 84.9071C615.165 67.0621 604.218 51.0309 589.615 38.5061C568.627 20.5036 541.628 11.0662 513.995 12.0729C486.362 13.0797 460.121 24.4568 440.499 43.9388C420.876 63.4209 409.31 89.5787 408.105 117.204C406.899 144.829 416.142 171.895 433.993 193.013C451.844 214.13 476.993 227.75 504.434 231.16C531.874 234.57 559.592 227.521 582.069 211.415C597.707 200.21 610.01 185.194 617.932 167.974C623.709 155.418 614.754 141.984 601.219 139.188C587.684 136.393 574.797 145.648 566.755 156.887C562.964 162.184 558.304 166.873 552.918 170.732C540.668 179.51 525.562 183.352 510.606 181.493C495.651 179.635 481.944 172.212 472.215 160.703C462.486 149.193 457.449 134.442 458.106 119.386C458.763 104.33 465.066 90.0738 475.761 79.4559C486.456 68.8379 500.757 62.6373 515.817 62.0886C530.878 61.5399 545.592 66.6834 557.031 76.495C562.06 80.8086 566.294 85.8855 569.609 91.4927C576.641 103.39 588.673 113.733 602.4 112.127Z" fill="#EFDA1C"/>
<path d="M519.397 153.779C509.27 140.89 518.452 122 534.842 122H627.999C662.626 122 651.209 170.651 632.976 193.903C625.356 203.619 614.999 195.99 614.999 183.643C614.999 171.295 604.989 161.286 592.642 161.286H534.842C528.815 161.286 523.121 158.518 519.397 153.779Z" fill="#FFE600" fill-opacity="0.37"/>
<path d="M352.331 81.2986C363.077 75.748 367.44 62.3505 359.865 52.9213C349.555 40.0877 336.422 29.6677 321.375 22.5403C299.687 12.2673 275.225 9.40349 251.75 14.3893C228.276 19.3752 207.089 31.9345 191.449 50.1359C175.809 68.3372 166.582 91.1725 165.185 115.13C163.789 139.087 170.302 162.84 183.722 182.734C197.142 202.629 216.727 217.564 239.463 225.243C262.199 232.922 286.828 232.919 309.563 225.235C325.336 219.903 339.591 211.079 351.322 199.53C359.941 191.045 357.163 177.231 347.134 170.47V170.47C337.106 163.708 323.63 166.766 313.96 174.03C308.411 178.198 302.2 181.489 295.538 183.741C281.897 188.351 267.119 188.353 253.478 183.746C239.836 179.139 228.085 170.178 220.033 158.241C211.981 146.304 208.074 132.052 208.911 117.678C209.749 103.303 215.286 89.6023 224.67 78.6815C234.054 67.7607 246.766 60.2251 260.85 57.2336C274.935 54.2421 289.612 55.9604 302.625 62.1242C308.98 65.1347 314.767 69.1243 319.794 73.909C328.556 82.2475 341.584 86.8493 352.331 81.2986V81.2986Z" fill="#FFE600" fill-opacity="0.37"/>
<path d="M300.002 205.306C303.524 216.877 315.914 223.585 326.555 217.836C335.41 213.051 343.594 207.051 350.859 199.983C363.378 187.803 372.802 172.804 378.343 156.24C383.885 139.675 385.383 122.025 382.713 104.764C380.044 87.5021 373.283 71.1296 362.997 57.013C352.71 42.8965 339.196 31.4456 323.582 23.6163C307.968 15.787 290.708 11.8066 273.242 12.0072C255.776 12.2079 238.612 16.5838 223.182 24.7698C214.229 29.5197 206.01 35.4725 198.743 42.4363C190.009 50.8042 192.6 64.654 202.536 71.5506V71.5506C212.472 78.4471 225.987 75.5729 235.755 68.4402C238.277 66.5987 240.934 64.934 243.709 63.4619C252.967 58.5503 263.266 55.9247 273.745 55.8043C284.225 55.6839 294.581 58.0722 303.949 62.7698C313.317 67.4674 321.426 74.3379 327.598 82.8078C333.77 91.2777 337.826 101.101 339.428 111.458C341.03 121.815 340.131 132.405 336.806 142.344C333.481 152.282 327.827 161.282 320.315 168.59C318.064 170.78 315.665 172.8 313.14 174.636C303.358 181.75 296.481 193.735 300.002 205.306V205.306Z" fill="#EFDA1C"/>
<path d="M861.331 75.2986C872.077 69.748 876.44 56.3505 868.865 46.9213C858.555 34.0877 845.422 23.6677 830.375 16.5403C808.687 6.2673 784.225 3.40349 760.75 8.38933C737.276 13.3752 716.089 25.9345 700.449 44.1359C684.809 62.3372 675.582 85.1725 674.185 109.13C672.789 133.087 679.302 156.84 692.722 176.734C706.142 196.629 725.727 211.564 748.463 219.243C771.199 226.922 795.828 226.919 818.563 219.235C834.336 213.903 848.591 205.079 860.322 193.53C868.941 185.045 866.163 171.231 856.134 164.47V164.47C846.106 157.708 832.63 160.766 822.96 168.03C817.411 172.198 811.2 175.489 804.538 177.741C790.897 182.351 776.119 182.353 762.478 177.746C748.836 173.139 737.085 164.178 729.033 152.241C720.981 140.304 717.074 126.052 717.911 111.678C718.749 97.3035 724.286 83.6023 733.67 72.6815C743.054 61.7607 755.766 54.2251 769.85 51.2336C783.935 48.2421 798.612 49.9604 811.625 56.1242C817.98 59.1347 823.767 63.1243 828.794 67.909C837.556 76.2475 850.584 80.8493 861.331 75.2986V75.2986Z" fill="#FFE600" fill-opacity="0.37"/>
<path d="M809.002 199.306C812.524 210.877 824.914 217.585 835.555 211.836C844.41 207.051 852.594 201.051 859.859 193.983C872.378 181.803 881.802 166.804 887.343 150.24C892.885 133.675 894.383 116.025 891.713 98.7637C889.044 81.5021 882.283 65.1296 871.997 51.013C861.71 36.8965 848.196 25.4456 832.582 17.6163C816.968 9.78704 799.708 5.80657 782.242 6.00723C764.776 6.20788 747.612 10.5838 732.182 18.7698C723.229 23.5197 715.01 29.4725 707.743 36.4363C699.009 44.8042 701.6 58.654 711.536 65.5506V65.5506C721.472 72.4471 734.987 69.5729 744.755 62.4402C747.277 60.5987 749.934 58.934 752.709 57.4619C761.967 52.5503 772.266 49.9247 782.745 49.8043C793.225 49.6839 803.581 52.0722 812.949 56.7698C822.317 61.4674 830.426 68.3379 836.598 76.8078C842.77 85.2777 846.826 95.1012 848.428 105.458C850.03 115.815 849.131 126.405 845.806 136.344C842.481 146.282 836.827 155.282 829.315 162.59C827.064 164.78 824.665 166.8 822.14 168.636C812.358 175.75 805.481 187.735 809.002 199.306V199.306Z" fill="#EFDA1C"/>
<rect width="47.9999" height="231.599" rx="23.9999" fill="#EFDA1C"/>
<rect y="231.3" width="48" height="144" rx="24" transform="rotate(-90 0 231.3)" fill="#EFDA1C"/>
<rect x="96" y="231.3" width="48" height="48" rx="24" transform="rotate(-90 96 231.3)" fill="#FFE600" fill-opacity="0.37"/>
</svg>
